<mxfile host="app.diagrams.net" modified="2023-06-13T04:03:49.594Z" agent="Mozilla/5.0 (Windows NT 10.0; Win64; x64) AppleWebKit/537.36 (KHTML, like Gecko) Chrome/114.0.0.0 Safari/537.36 Edg/114.0.1823.43" etag="pAAK69K0nQcXuBTsjPl3" version="21.3.7" type="device">
  <diagram name="페이지-1" id="3OB2m6Rl3OH558JiY4h1">
    <mxGraphModel dx="1435" dy="955" grid="0" gridSize="10" guides="1" tooltips="1" connect="1" arrows="1" fold="1" page="1" pageScale="1" pageWidth="2339" pageHeight="3300" background="#ffffff" math="0" shadow="0">
      <root>
        <mxCell id="0" />
        <mxCell id="1" parent="0" />
        <mxCell id="d2pMuISZcKYEVDo3dcyH-3" style="edgeStyle=orthogonalEdgeStyle;rounded=0;orthogonalLoop=1;jettySize=auto;html=1;entryX=0.5;entryY=0;entryDx=0;entryDy=0;labelBackgroundColor=#fffffffffffff;" edge="1" parent="1" source="d2pMuISZcKYEVDo3dcyH-1" target="d2pMuISZcKYEVDo3dcyH-2">
          <mxGeometry relative="1" as="geometry" />
        </mxCell>
        <mxCell id="d2pMuISZcKYEVDo3dcyH-1" value="Start" style="ellipse;whiteSpace=wrap;html=1;fontSize=21;labelBackgroundColor=#fffffffffffff;" vertex="1" parent="1">
          <mxGeometry x="440" y="40" width="120" height="80" as="geometry" />
        </mxCell>
        <mxCell id="d2pMuISZcKYEVDo3dcyH-10" style="edgeStyle=orthogonalEdgeStyle;rounded=0;orthogonalLoop=1;jettySize=auto;html=1;labelBackgroundColor=#fffffffffffff;" edge="1" parent="1" source="d2pMuISZcKYEVDo3dcyH-2" target="d2pMuISZcKYEVDo3dcyH-4">
          <mxGeometry relative="1" as="geometry" />
        </mxCell>
        <mxCell id="d2pMuISZcKYEVDo3dcyH-2" value="앱 실행" style="rounded=0;whiteSpace=wrap;html=1;fontSize=18;labelBackgroundColor=#fffffffffffff;" vertex="1" parent="1">
          <mxGeometry x="420" y="150" width="160" height="50" as="geometry" />
        </mxCell>
        <mxCell id="d2pMuISZcKYEVDo3dcyH-12" style="edgeStyle=orthogonalEdgeStyle;rounded=0;orthogonalLoop=1;jettySize=auto;html=1;entryX=0.5;entryY=0;entryDx=0;entryDy=0;labelBackgroundColor=#fffffffffffff;" edge="1" parent="1" source="d2pMuISZcKYEVDo3dcyH-4" target="d2pMuISZcKYEVDo3dcyH-11">
          <mxGeometry relative="1" as="geometry" />
        </mxCell>
        <mxCell id="d2pMuISZcKYEVDo3dcyH-4" value="홈 화면" style="rounded=0;whiteSpace=wrap;html=1;fontSize=18;labelBackgroundColor=#fffffffffffff;" vertex="1" parent="1">
          <mxGeometry x="420" y="220" width="160" height="50" as="geometry" />
        </mxCell>
        <mxCell id="d2pMuISZcKYEVDo3dcyH-15" style="edgeStyle=orthogonalEdgeStyle;rounded=0;orthogonalLoop=1;jettySize=auto;html=1;exitX=0.5;exitY=1;exitDx=0;exitDy=0;entryX=0.5;entryY=0;entryDx=0;entryDy=0;labelBackgroundColor=#fffffffffffff;" edge="1" parent="1" source="d2pMuISZcKYEVDo3dcyH-11" target="d2pMuISZcKYEVDo3dcyH-14">
          <mxGeometry relative="1" as="geometry" />
        </mxCell>
        <mxCell id="d2pMuISZcKYEVDo3dcyH-71" style="edgeStyle=orthogonalEdgeStyle;rounded=0;orthogonalLoop=1;jettySize=auto;html=1;entryX=0.5;entryY=0;entryDx=0;entryDy=0;fillColor=#d80073;strokeColor=#A50040;strokeWidth=4;labelBackgroundColor=#fffffffffffff;" edge="1" parent="1" source="d2pMuISZcKYEVDo3dcyH-11" target="d2pMuISZcKYEVDo3dcyH-68">
          <mxGeometry relative="1" as="geometry">
            <Array as="points">
              <mxPoint x="630" y="320" />
              <mxPoint x="630" y="760" />
              <mxPoint x="500" y="760" />
            </Array>
          </mxGeometry>
        </mxCell>
        <mxCell id="d2pMuISZcKYEVDo3dcyH-11" value="앱 종료?" style="rhombus;whiteSpace=wrap;html=1;fontSize=16;labelBackgroundColor=#fffffffffffff;" vertex="1" parent="1">
          <mxGeometry x="420" y="290" width="160" height="60" as="geometry" />
        </mxCell>
        <mxCell id="d2pMuISZcKYEVDo3dcyH-22" style="edgeStyle=orthogonalEdgeStyle;rounded=0;orthogonalLoop=1;jettySize=auto;html=1;exitX=0.5;exitY=1;exitDx=0;exitDy=0;entryX=0.5;entryY=0;entryDx=0;entryDy=0;labelBackgroundColor=#fffffffffffff;" edge="1" parent="1" source="d2pMuISZcKYEVDo3dcyH-14" target="d2pMuISZcKYEVDo3dcyH-20">
          <mxGeometry relative="1" as="geometry" />
        </mxCell>
        <mxCell id="d2pMuISZcKYEVDo3dcyH-14" value="이름 입력" style="rounded=0;whiteSpace=wrap;html=1;fontSize=18;labelBackgroundColor=#fffffffffffff;" vertex="1" parent="1">
          <mxGeometry x="420" y="371" width="160" height="50" as="geometry" />
        </mxCell>
        <mxCell id="d2pMuISZcKYEVDo3dcyH-17" value="Yes" style="text;html=1;strokeColor=none;fillColor=none;align=center;verticalAlign=middle;whiteSpace=wrap;rounded=0;fontStyle=1;labelBackgroundColor=#fffffffffffff;fontSize=16;" vertex="1" parent="1">
          <mxGeometry x="541" y="285" width="60" height="30" as="geometry" />
        </mxCell>
        <mxCell id="d2pMuISZcKYEVDo3dcyH-18" value="No" style="text;html=1;strokeColor=none;fillColor=none;align=center;verticalAlign=middle;whiteSpace=wrap;rounded=0;fontStyle=1;labelBackgroundColor=#fffffffffffff;fontSize=16;" vertex="1" parent="1">
          <mxGeometry x="490" y="343" width="60" height="30" as="geometry" />
        </mxCell>
        <mxCell id="d2pMuISZcKYEVDo3dcyH-21" style="edgeStyle=orthogonalEdgeStyle;rounded=0;orthogonalLoop=1;jettySize=auto;html=1;entryX=0;entryY=0.5;entryDx=0;entryDy=0;labelBackgroundColor=#fffffffffffff;" edge="1" parent="1" source="d2pMuISZcKYEVDo3dcyH-20" target="d2pMuISZcKYEVDo3dcyH-4">
          <mxGeometry relative="1" as="geometry">
            <Array as="points">
              <mxPoint x="340" y="470" />
              <mxPoint x="340" y="245" />
            </Array>
          </mxGeometry>
        </mxCell>
        <mxCell id="d2pMuISZcKYEVDo3dcyH-26" style="edgeStyle=orthogonalEdgeStyle;rounded=0;orthogonalLoop=1;jettySize=auto;html=1;exitX=0.5;exitY=1;exitDx=0;exitDy=0;entryX=0.5;entryY=0;entryDx=0;entryDy=0;labelBackgroundColor=#fffffffffffff;" edge="1" parent="1" source="d2pMuISZcKYEVDo3dcyH-20" target="d2pMuISZcKYEVDo3dcyH-25">
          <mxGeometry relative="1" as="geometry" />
        </mxCell>
        <mxCell id="d2pMuISZcKYEVDo3dcyH-20" value="이름이 존재?" style="rhombus;whiteSpace=wrap;html=1;fontSize=16;labelBackgroundColor=#fffffffffffff;" vertex="1" parent="1">
          <mxGeometry x="420" y="440" width="160" height="60" as="geometry" />
        </mxCell>
        <mxCell id="d2pMuISZcKYEVDo3dcyH-23" value="No" style="text;html=1;strokeColor=none;fillColor=none;align=center;verticalAlign=middle;whiteSpace=wrap;rounded=0;fontStyle=1;labelBackgroundColor=#fffffffffffff;fontSize=16;" vertex="1" parent="1">
          <mxGeometry x="392" y="440" width="60" height="30" as="geometry" />
        </mxCell>
        <mxCell id="d2pMuISZcKYEVDo3dcyH-24" value="Yes" style="text;html=1;strokeColor=none;fillColor=none;align=center;verticalAlign=middle;whiteSpace=wrap;rounded=0;fontStyle=1;labelBackgroundColor=#fffffffffffff;fontSize=16;" vertex="1" parent="1">
          <mxGeometry x="492" y="493" width="60" height="30" as="geometry" />
        </mxCell>
        <mxCell id="d2pMuISZcKYEVDo3dcyH-28" style="edgeStyle=orthogonalEdgeStyle;rounded=0;orthogonalLoop=1;jettySize=auto;html=1;exitX=0.5;exitY=1;exitDx=0;exitDy=0;entryX=0.5;entryY=0;entryDx=0;entryDy=0;labelBackgroundColor=#fffffffffffff;" edge="1" parent="1" source="d2pMuISZcKYEVDo3dcyH-25" target="d2pMuISZcKYEVDo3dcyH-27">
          <mxGeometry relative="1" as="geometry" />
        </mxCell>
        <mxCell id="d2pMuISZcKYEVDo3dcyH-25" value="개인 사원번호 입력" style="rounded=0;whiteSpace=wrap;html=1;fontSize=18;labelBackgroundColor=#fffffffffffff;" vertex="1" parent="1">
          <mxGeometry x="420" y="522" width="160" height="50" as="geometry" />
        </mxCell>
        <mxCell id="d2pMuISZcKYEVDo3dcyH-31" style="edgeStyle=orthogonalEdgeStyle;rounded=0;orthogonalLoop=1;jettySize=auto;html=1;entryX=1;entryY=0.5;entryDx=0;entryDy=0;labelBackgroundColor=#fffffffffffff;" edge="1" parent="1" source="d2pMuISZcKYEVDo3dcyH-27" target="d2pMuISZcKYEVDo3dcyH-30">
          <mxGeometry relative="1" as="geometry" />
        </mxCell>
        <mxCell id="d2pMuISZcKYEVDo3dcyH-42" style="edgeStyle=orthogonalEdgeStyle;rounded=0;orthogonalLoop=1;jettySize=auto;html=1;exitX=0.5;exitY=1;exitDx=0;exitDy=0;labelBackgroundColor=#fffffffffffff;" edge="1" parent="1" source="d2pMuISZcKYEVDo3dcyH-27" target="d2pMuISZcKYEVDo3dcyH-40">
          <mxGeometry relative="1" as="geometry" />
        </mxCell>
        <mxCell id="d2pMuISZcKYEVDo3dcyH-27" value="번호가 존재?" style="rhombus;whiteSpace=wrap;html=1;fontSize=16;labelBackgroundColor=#fffffffffffff;" vertex="1" parent="1">
          <mxGeometry x="420" y="590" width="160" height="60" as="geometry" />
        </mxCell>
        <mxCell id="d2pMuISZcKYEVDo3dcyH-35" style="edgeStyle=orthogonalEdgeStyle;rounded=0;orthogonalLoop=1;jettySize=auto;html=1;exitX=0.5;exitY=0;exitDx=0;exitDy=0;entryX=0;entryY=0.5;entryDx=0;entryDy=0;labelBackgroundColor=#fffffffffffff;" edge="1" parent="1" source="d2pMuISZcKYEVDo3dcyH-30" target="d2pMuISZcKYEVDo3dcyH-25">
          <mxGeometry relative="1" as="geometry" />
        </mxCell>
        <mxCell id="d2pMuISZcKYEVDo3dcyH-36" style="edgeStyle=orthogonalEdgeStyle;rounded=0;orthogonalLoop=1;jettySize=auto;html=1;entryX=0;entryY=0.5;entryDx=0;entryDy=0;labelBackgroundColor=#fffffffffffff;" edge="1" parent="1" source="d2pMuISZcKYEVDo3dcyH-30" target="d2pMuISZcKYEVDo3dcyH-4">
          <mxGeometry relative="1" as="geometry">
            <Array as="points">
              <mxPoint x="190" y="620" />
              <mxPoint x="190" y="245" />
            </Array>
          </mxGeometry>
        </mxCell>
        <mxCell id="d2pMuISZcKYEVDo3dcyH-30" value="3회 이상&lt;br&gt;입력 오류?" style="rhombus;whiteSpace=wrap;html=1;fontSize=16;labelBackgroundColor=#fffffffffffff;" vertex="1" parent="1">
          <mxGeometry x="220" y="590" width="160" height="60" as="geometry" />
        </mxCell>
        <mxCell id="d2pMuISZcKYEVDo3dcyH-33" value="Yes" style="text;html=1;strokeColor=none;fillColor=none;align=center;verticalAlign=middle;whiteSpace=wrap;rounded=0;fontStyle=1;labelBackgroundColor=#fffffffffffff;fontSize=16;" vertex="1" parent="1">
          <mxGeometry x="185" y="588" width="60" height="30" as="geometry" />
        </mxCell>
        <mxCell id="d2pMuISZcKYEVDo3dcyH-34" value="No" style="text;html=1;strokeColor=none;fillColor=none;align=center;verticalAlign=middle;whiteSpace=wrap;rounded=0;fontStyle=1;labelBackgroundColor=#fffffffffffff;fontSize=16;" vertex="1" parent="1">
          <mxGeometry x="290" y="557" width="60" height="30" as="geometry" />
        </mxCell>
        <mxCell id="d2pMuISZcKYEVDo3dcyH-38" value="Yes" style="text;html=1;strokeColor=none;fillColor=none;align=center;verticalAlign=middle;whiteSpace=wrap;rounded=0;fontStyle=1;labelBackgroundColor=#fffffffffffff;fontSize=16;" vertex="1" parent="1">
          <mxGeometry x="491" y="648" width="60" height="30" as="geometry" />
        </mxCell>
        <mxCell id="d2pMuISZcKYEVDo3dcyH-39" value="No" style="text;html=1;strokeColor=none;fillColor=none;align=center;verticalAlign=middle;whiteSpace=wrap;rounded=0;fontStyle=1;labelBackgroundColor=#fffffffffffff;fontSize=16;" vertex="1" parent="1">
          <mxGeometry x="386" y="590" width="60" height="30" as="geometry" />
        </mxCell>
        <mxCell id="d2pMuISZcKYEVDo3dcyH-67" style="edgeStyle=orthogonalEdgeStyle;rounded=0;orthogonalLoop=1;jettySize=auto;html=1;entryX=0.5;entryY=0;entryDx=0;entryDy=0;labelBackgroundColor=#fffffffffffff;" edge="1" parent="1" source="d2pMuISZcKYEVDo3dcyH-40" target="d2pMuISZcKYEVDo3dcyH-43">
          <mxGeometry relative="1" as="geometry">
            <Array as="points">
              <mxPoint x="1120" y="705" />
              <mxPoint x="1120" y="90" />
              <mxPoint x="1009" y="90" />
            </Array>
          </mxGeometry>
        </mxCell>
        <mxCell id="d2pMuISZcKYEVDo3dcyH-40" value="급여 계산&lt;br&gt;결과 출력" style="rounded=0;whiteSpace=wrap;html=1;fontSize=18;labelBackgroundColor=#fffffffffffff;" vertex="1" parent="1">
          <mxGeometry x="420" y="680" width="160" height="50" as="geometry" />
        </mxCell>
        <mxCell id="d2pMuISZcKYEVDo3dcyH-44" style="edgeStyle=orthogonalEdgeStyle;rounded=0;orthogonalLoop=1;jettySize=auto;html=1;entryX=1;entryY=0.5;entryDx=0;entryDy=0;labelBackgroundColor=#fffffffffffff;" edge="1" parent="1" source="d2pMuISZcKYEVDo3dcyH-43" target="d2pMuISZcKYEVDo3dcyH-4">
          <mxGeometry relative="1" as="geometry">
            <Array as="points">
              <mxPoint x="764" y="175" />
              <mxPoint x="764" y="245" />
            </Array>
          </mxGeometry>
        </mxCell>
        <mxCell id="d2pMuISZcKYEVDo3dcyH-48" style="edgeStyle=orthogonalEdgeStyle;rounded=0;orthogonalLoop=1;jettySize=auto;html=1;entryX=0.5;entryY=0;entryDx=0;entryDy=0;labelBackgroundColor=#fffffffffffff;" edge="1" parent="1" source="d2pMuISZcKYEVDo3dcyH-43" target="d2pMuISZcKYEVDo3dcyH-47">
          <mxGeometry relative="1" as="geometry" />
        </mxCell>
        <mxCell id="d2pMuISZcKYEVDo3dcyH-43" value="이의제기?" style="rhombus;whiteSpace=wrap;html=1;fontSize=16;labelBackgroundColor=#fffffffffffff;" vertex="1" parent="1">
          <mxGeometry x="929" y="145" width="160" height="60" as="geometry" />
        </mxCell>
        <mxCell id="d2pMuISZcKYEVDo3dcyH-45" value="No" style="text;html=1;strokeColor=none;fillColor=none;align=center;verticalAlign=middle;whiteSpace=wrap;rounded=0;fontStyle=1;labelBackgroundColor=#fffffffffffff;fontSize=16;" vertex="1" parent="1">
          <mxGeometry x="897" y="146" width="60" height="30" as="geometry" />
        </mxCell>
        <mxCell id="d2pMuISZcKYEVDo3dcyH-46" value="Yes" style="text;html=1;strokeColor=none;fillColor=none;align=center;verticalAlign=middle;whiteSpace=wrap;rounded=0;fontStyle=1;labelBackgroundColor=#fffffffffffff;fontSize=16;" vertex="1" parent="1">
          <mxGeometry x="999" y="204" width="60" height="30" as="geometry" />
        </mxCell>
        <mxCell id="d2pMuISZcKYEVDo3dcyH-50" style="edgeStyle=orthogonalEdgeStyle;rounded=0;orthogonalLoop=1;jettySize=auto;html=1;exitX=0.5;exitY=1;exitDx=0;exitDy=0;entryX=0.5;entryY=0;entryDx=0;entryDy=0;labelBackgroundColor=#fffffffffffff;" edge="1" parent="1" source="d2pMuISZcKYEVDo3dcyH-47">
          <mxGeometry relative="1" as="geometry">
            <mxPoint x="1009.0000000000002" y="310" as="targetPoint" />
          </mxGeometry>
        </mxCell>
        <mxCell id="d2pMuISZcKYEVDo3dcyH-47" value="이의제기&lt;br&gt;내용 입력" style="rounded=0;whiteSpace=wrap;html=1;fontSize=18;labelBackgroundColor=#fffffffffffff;" vertex="1" parent="1">
          <mxGeometry x="929" y="240" width="160" height="50" as="geometry" />
        </mxCell>
        <mxCell id="d2pMuISZcKYEVDo3dcyH-56" style="edgeStyle=orthogonalEdgeStyle;rounded=0;orthogonalLoop=1;jettySize=auto;html=1;exitX=0.5;exitY=1;exitDx=0;exitDy=0;entryX=0.5;entryY=0;entryDx=0;entryDy=0;labelBackgroundColor=#fffffffffffff;" edge="1" parent="1" source="d2pMuISZcKYEVDo3dcyH-51" target="d2pMuISZcKYEVDo3dcyH-55">
          <mxGeometry relative="1" as="geometry" />
        </mxCell>
        <mxCell id="d2pMuISZcKYEVDo3dcyH-58" style="edgeStyle=orthogonalEdgeStyle;rounded=0;orthogonalLoop=1;jettySize=auto;html=1;exitX=0;exitY=0.5;exitDx=0;exitDy=0;entryX=1;entryY=0.5;entryDx=0;entryDy=0;labelBackgroundColor=#fffffffffffff;" edge="1" parent="1" source="d2pMuISZcKYEVDo3dcyH-51" target="d2pMuISZcKYEVDo3dcyH-57">
          <mxGeometry relative="1" as="geometry" />
        </mxCell>
        <mxCell id="d2pMuISZcKYEVDo3dcyH-51" value="보내기?" style="rhombus;whiteSpace=wrap;html=1;fontSize=16;labelBackgroundColor=#fffffffffffff;" vertex="1" parent="1">
          <mxGeometry x="929" y="310" width="160" height="60" as="geometry" />
        </mxCell>
        <mxCell id="d2pMuISZcKYEVDo3dcyH-53" value="No" style="text;html=1;strokeColor=none;fillColor=none;align=center;verticalAlign=middle;whiteSpace=wrap;rounded=0;fontStyle=1;labelBackgroundColor=#fffffffffffff;fontSize=16;" vertex="1" parent="1">
          <mxGeometry x="893" y="306" width="60" height="30" as="geometry" />
        </mxCell>
        <mxCell id="d2pMuISZcKYEVDo3dcyH-54" value="Yes" style="text;html=1;strokeColor=none;fillColor=none;align=center;verticalAlign=middle;whiteSpace=wrap;rounded=0;fontStyle=1;labelBackgroundColor=#fffffffffffff;fontSize=16;" vertex="1" parent="1">
          <mxGeometry x="1001" y="368" width="60" height="30" as="geometry" />
        </mxCell>
        <mxCell id="d2pMuISZcKYEVDo3dcyH-72" style="edgeStyle=orthogonalEdgeStyle;rounded=0;orthogonalLoop=1;jettySize=auto;html=1;entryX=1;entryY=0.5;entryDx=0;entryDy=0;" edge="1" parent="1" source="d2pMuISZcKYEVDo3dcyH-55" target="d2pMuISZcKYEVDo3dcyH-4">
          <mxGeometry relative="1" as="geometry">
            <Array as="points">
              <mxPoint x="655" y="425" />
              <mxPoint x="655" y="245" />
            </Array>
          </mxGeometry>
        </mxCell>
        <mxCell id="d2pMuISZcKYEVDo3dcyH-55" value="보내기 성공!" style="rounded=0;whiteSpace=wrap;html=1;fontSize=18;labelBackgroundColor=#fffffffffffff;" vertex="1" parent="1">
          <mxGeometry x="929" y="400" width="160" height="50" as="geometry" />
        </mxCell>
        <mxCell id="d2pMuISZcKYEVDo3dcyH-57" value="보내기 취소" style="rounded=0;whiteSpace=wrap;html=1;fontSize=18;labelBackgroundColor=#fffffffffffff;" vertex="1" parent="1">
          <mxGeometry x="683" y="315" width="160" height="50" as="geometry" />
        </mxCell>
        <mxCell id="d2pMuISZcKYEVDo3dcyH-64" value="" style="endArrow=none;html=1;rounded=0;exitX=0.5;exitY=0;exitDx=0;exitDy=0;labelBackgroundColor=#fffffffffffff;" edge="1" parent="1">
          <mxGeometry width="50" height="50" relative="1" as="geometry">
            <mxPoint x="763" y="315" as="sourcePoint" />
            <mxPoint x="763" y="245" as="targetPoint" />
          </mxGeometry>
        </mxCell>
        <mxCell id="d2pMuISZcKYEVDo3dcyH-70" style="edgeStyle=orthogonalEdgeStyle;rounded=0;orthogonalLoop=1;jettySize=auto;html=1;exitX=0.5;exitY=1;exitDx=0;exitDy=0;entryX=0.5;entryY=0;entryDx=0;entryDy=0;labelBackgroundColor=#fffffffffffff;" edge="1" parent="1" source="d2pMuISZcKYEVDo3dcyH-68" target="d2pMuISZcKYEVDo3dcyH-69">
          <mxGeometry relative="1" as="geometry" />
        </mxCell>
        <mxCell id="d2pMuISZcKYEVDo3dcyH-68" value="앱 종료" style="rounded=0;whiteSpace=wrap;html=1;fontSize=18;labelBackgroundColor=#fffffffffffff;" vertex="1" parent="1">
          <mxGeometry x="420" y="790" width="160" height="50" as="geometry" />
        </mxCell>
        <mxCell id="d2pMuISZcKYEVDo3dcyH-69" value="End" style="ellipse;whiteSpace=wrap;html=1;fontSize=21;labelBackgroundColor=#fffffffffffff;" vertex="1" parent="1">
          <mxGeometry x="440" y="860" width="120" height="80" as="geometry" />
        </mxCell>
      </root>
    </mxGraphModel>
  </diagram>
</mxfile>
